#N canvas 827 239 527 327 12;
#X obj 56 502 pgmout 15;
#X obj 56 300 tgl 55 0 empty empty empty 17 7 0 10 #e4e4e4 #5a5a5a #5a5a5a 0 1;
#X obj 56 420 moses 1;
#X text 275 50 Rightmost Bass Pedal (chan 16) momentary button, f 28;
#X obj 56 138 sel 127;
#X msg 56 462 41, f 5;
#X msg 112 462 40, f 5;
#X obj 56 165 t b b;
#X obj 56 193 realtime;
#X obj 56 223 > 100;
#X obj 56 254 sel 1;
#X text 127 137 Debounce changes more rapid than 100mS, f 17;
#X obj 308 254 ctlin 78 112;
#X obj 56 111 ctlin 96 16;
#X text 56 43 Channel 16 is MIDI channel 16 from the Bass pedals. Controller 96 is the right most pushbutton \, momentary, f 29;
#X text 308 192 Channel 112 = ((7-1) * 16) + 16 is MIDI channel 16 from the Ground Control pedals. Controller 78 is the right most button. It toggles 0/127., f 36;
#X text 136 336;
#X text 136 313 Clean should display LEDs "00001001" Distortion should display LEDs "00000111", f 36;
#X connect 1 0 2 0;
#X connect 2 0 5 0;
#X connect 2 1 6 0;
#X connect 4 0 7 0;
#X connect 5 0 0 0;
#X connect 6 0 0 0;
#X connect 7 0 8 0;
#X connect 7 1 8 1;
#X connect 8 0 9 0;
#X connect 9 0 10 0;
#X connect 10 0 1 0;
#X connect 12 0 1 0;
#X connect 13 0 4 0;
