#N canvas 827 239 734 565 12;
#X obj 188 196 else/replace 13, f 21;
#X text 216 104 Axon global parameters, f 13;
#X msg 188 146 0 32 32 0 0 22 0 10 9 2 0 99 0 2 14 1 2, f 19;
#X obj 191 30 inlet;
#X text 242 29 guitar number 0-5;
#X obj 188 259 outlet;
#X text 13 15 Send Sysex message to Axon AX-100 to set guitar, f 24;
#X obj 191 78 t b f, f 21;
#X obj 188 227 axon-sysex;
#X connect 0 0 8 0;
#X connect 2 0 0 0;
#X connect 3 0 7 0;
#X connect 7 0 2 0;
#X connect 7 1 0 2;
#X connect 8 0 5 0;
