#N canvas 827 239 734 565 12;
#X obj 252 160 roland-checksum;
#X msg 105 160 240 0 32 54 32 0, f 12;
#X text 19 118 Axon AX-100 Sysex prefix, f 12;
#X msg 372 160 247, f 5;
#X text 416 159 EoX;
#X obj 158 267 else/merge 4, f 22;
#X obj 158 13 inlet;
#X obj 158 308 outlet;
#X text 208 12 Axon sysex message;
#X text 4 3 Send Sysex message to Axon AX-100, f 19;
#X obj 158 61 t b l l b, f 23;
#X connect 0 0 5 2;
#X connect 1 0 5 0;
#X connect 3 0 5 3;
#X connect 5 0 7 0;
#X connect 6 0 10 0;
#X connect 10 0 1 0;
#X connect 10 1 5 1;
#X connect 10 2 0 0;
#X connect 10 3 3 0;
