#N canvas 827 239 734 565 12;
#X declare -lib zexy -path zexy;
#X declare -lib zexy -path zexy;
#X obj 79 777 declare -lib zexy -path zexy;
#X obj 167 141 bng 25 250 50 0 empty empty empty 0 -10 0 10 #e4e4e4 #4d4d4d #373737;
#X obj 110 356 symbol2list _;
#X obj 46 146 list2symbol _;
#X obj 46 181 list prepend;
#X text 167 116 clear;
#X obj 110 284 cyclone/zl.mth;
#X obj 110 321 symbol;
#X obj 244 146 t b f;
#X obj 167 208 t l;
#X obj 46 103 inlet;
#X text 19 56 The list of multivariate rows, f 16;
#X obj 244 103 inlet;
#X text 238 70 The index to retrieve;
#X obj 110 389 outlet;
#X text 23 12 A database lookup \, returning a row of values as a list given a comma-separated list of rows \, and a base 0 index.;
#X obj 26 422 declare -lib zexy -path zexy;
#X connect 1 0 4 1;
#X connect 2 0 14 0;
#X connect 3 0 4 0;
#X connect 4 0 9 0;
#X connect 4 0 6 0;
#X connect 6 0 7 0;
#X connect 7 0 2 0;
#X connect 8 0 6 0;
#X connect 8 1 6 1;
#X connect 9 0 4 1;
#X connect 10 0 3 0;
#X connect 12 0 8 0;
