#N canvas 827 239 734 565 12;
#X obj 44 323 + 1;
#X obj 73 198 else/slice, f 8;
#X obj 73 231 else/equal, f 12;
#X obj 115 155 cyclone/zl.len;
#X obj 44 293 cyclone/zl.mth;
#X obj 44 120 inlet;
#X text 216 76 Check for sysex prefix, f 12;
#X obj 228 120 inlet;
#X obj 311 120 inlet;
#X text 29 79 Sysex message list, f 12;
#X text 311 76 list element to extract for guitar, f 16;
#X obj 44 361 outlet;
#X text 94 322 Guitars are numbered from 0 \, make it numbered from 1, f 26;
#X text 29 11 Extracts the guitar number from the sysex message list if the message list matches the prefix., f 32;
#X obj 44 261 spigot, f 7;
#X connect 0 0 11 0;
#X connect 1 0 2 0;
#X connect 2 0 14 1;
#X connect 3 0 1 1;
#X connect 4 0 0 0;
#X connect 5 0 1 0;
#X connect 5 0 14 0;
#X connect 7 0 2 1;
#X connect 7 0 3 0;
#X connect 8 0 4 1;
#X connect 14 0 4 0;
