#N canvas 827 239 734 565 12;
#X obj 258 654 midiout, f 7;
#X msg 289 614 49, f 4;
#X obj 859 102 bng 20 250 50 0 empty empty empty 0 -10 0 10 #e4e4e4 #4d4d4d #373737;
#X obj 143 654 midiout, f 7;
#X msg 174 614 112, f 5;
#X floatatom 726 273 5 0 0 0 - - - 0;
#X obj 673 234 sysexin-list;
#X obj 673 336 print Axon guitar;
#X msg 793 262 0 32 54 32 0 0 32 32;
#X msg 952 263 17;
#X msg 790 383 65 16 0 0 0 105 18 0 1 0 38, f 24;
#X obj 673 307 extract-guitar;
#X obj 619 429 extract-guitar;
#X text 894 204 Check for Axon AX-100 sysex, f 17;
#X text 909 319 Check for Boss SY-1000 sysex, f 14;
#X obj 619 458 print SY-1000 guitar;
#X msg 975 383 11;
#X text 846 39 Send an Axon dump request and a GK retrieve request to SY-1000, f 28;
#X msg 672 102 2;
#X text 671 45 Change Axon to EA Guitar;
#X obj 671 133 pgmout 49;
#X obj 671 70 loadbang;
#X obj 793 205 loadbang;
#X obj 174 546 loadbang, f 8;
#X obj 348 446 pgmout 18;
#X text 433 445 GX-2 MIDI channel 2;
#X msg 350 566 0 64 32 0 0 0, f 13;
#X obj 350 610 axon-sysex, f 10;
#X obj 258 446 axon-guitar, f 10;
#X text 10 473 Send a SY-1000 guitar dump request, f 19;
#X msg 21 566 0 1 0 38 0 0 0 1, f 15;
#X obj 21 610 sy1000-sysex get, f 15;
#X obj 140 446 sy1000-guitar;
#X msg 134 97 "G-202+BX-13" 0 3 39 \, "G-202+RMC" 1 2 41 \, "LMS-1+BX-13" 2 5 38 \, "IMG-2010+BX" 3 6 42 \, "G-707+BX" 4 7 43 \, "Tama+RMC" 6 0 36 \, "G-808+BX" 8 4 37, f 24;
#X obj 134 294 unpack s f f f;
#X floatatom 140 372 3 0 0 0 - - - 12;
#X floatatom 258 372 5 0 0 0 - - - 0;
#X obj 334 82 vradio 20 1 0 7 empty empty empty 0 -8 0 10 #e4e4e4 #4d4d4d #373737 0;
#X text 372 203 G-808 + BX-13;
#X text 372 181 Tama + RMC Piezo;
#X text 372 123 LMS-1 + BX-13;
#X symbolatom 10 372 11 0 0 0 - - - 16;
#X text 372 81 G-202+BX-13;
#X text 372 142 IMG-2010+BX;
#X text 372 163 G-707+BX;
#X text 372 102 G-202+RMC;
#X obj 134 238 db_lookup;
#X text 134 15 Send SysEx commands to Axon AX-100 and Boss SY-1000 \, and programme change to GX-2 to change guitars., f 39;
#X text 97 688 Send change to SY-1000 guitar., f 14;
#X text 387 371 Change GX-2 to guitar patch;
#X text 254 688 Send change to Axon guitar., f 14;
#X floatatom 348 372 5 0 0 0 - - - 0;
#X obj 857 144 s get_guitar;
#X obj 21 525 r get_guitar;
#X obj 350 529 r get_guitar;
#X obj 790 320 loadbang;
#X text 350 484 Send an Axon globals parameter retrieve, f 20;
#X obj 134 69 loadbang;
#X connect 1 0 0 1;
#X connect 2 0 52 0;
#X connect 4 0 3 1;
#X connect 6 0 12 0;
#X connect 6 0 11 0;
#X connect 6 1 5 0;
#X connect 8 0 11 1;
#X connect 9 0 11 2;
#X connect 10 0 12 1;
#X connect 11 0 7 0;
#X connect 12 0 15 0;
#X connect 16 0 12 2;
#X connect 18 0 20 0;
#X connect 21 0 18 0;
#X connect 22 0 8 0;
#X connect 22 0 9 0;
#X connect 23 0 1 0;
#X connect 23 0 4 0;
#X connect 26 0 27 0;
#X connect 27 0 0 0;
#X connect 28 0 0 0;
#X connect 30 0 31 0;
#X connect 31 0 3 0;
#X connect 32 0 3 0;
#X connect 33 0 46 0;
#X connect 34 0 41 0;
#X connect 34 1 35 0;
#X connect 34 2 36 0;
#X connect 34 3 51 0;
#X connect 35 0 32 0;
#X connect 36 0 28 0;
#X connect 37 0 46 1;
#X connect 46 0 34 0;
#X connect 51 0 24 0;
#X connect 53 0 30 0;
#X connect 54 0 26 0;
#X connect 55 0 10 0;
#X connect 55 0 16 0;
#X connect 57 0 33 0;
