#N canvas 827 239 734 565 12;
#X obj 39 72 inlet;
#X obj 39 233 -;
#X msg 39 157 128;
#X obj 39 272 outlet;
#X obj 96 193 % 128;
#X obj 96 156 cyclone/zl.sum;
#X text 39 33 Compute a Roland SysEx checksum from integers in a list. The Roland checksum is 0x80 - (sum(list) modulo 128), f 50;
#X obj 39 109 t b l;
#X connect 0 0 7 0;
#X connect 1 0 3 0;
#X connect 2 0 1 0;
#X connect 4 0 1 1;
#X connect 5 0 4 0;
#X connect 7 0 2 0;
#X connect 7 1 5 0;
