#N canvas 827 239 734 565 12;
#X msg 575 134 247, f 5;
#X text 619 133 EoX;
#X obj 469 178 roland-checksum;
#X msg 293 222 17;
#X msg 329 222 18;
#X msg 225 134 240 65 16 0 0 0 105, f 10;
#X text 114 133 Boss SY-1000 Sysex prefix, f 13;
#X obj 280 43 inlet;
#X obj 293 178 select get set, f 13;
#X obj 225 359 outlet;
#X text 44 28 Send Boss SY-1000 a message to get or set a parameter, f 28;
#X obj 336 134 symbol \$1;
#X obj 280 83 t b b l l b, f 45;
#X obj 225 259 else/merge 2;
#X obj 225 314 else/merge 4, f 52;
#X text 31 250 Seems to need a cascade of merges \, as merge 5 outputs two results to the outlet., f 25;
#X connect 0 0 14 3;
#X connect 2 0 14 2;
#X connect 3 0 13 1;
#X connect 4 0 13 1;
#X connect 5 0 13 0;
#X connect 7 0 12 0;
#X connect 8 0 3 0;
#X connect 8 1 4 0;
#X connect 11 0 8 0;
#X connect 12 0 5 0;
#X connect 12 1 11 0;
#X connect 12 2 14 1;
#X connect 12 3 2 0;
#X connect 12 4 0 0;
#X connect 13 0 14 0;
#X connect 14 0 9 0;
