#N canvas 827 239 734 565 12;
#X obj 45 278 outlet;
#X obj 112 41 inlet;
#X msg 45 128 0 1 0 38, f 8;
#X obj 45 187 else/merge;
#X text 44 7 Output a Boss SY-1000 Sysex to change the guitar to the given numeric value (base 0)., f 38;
#X obj 45 231 sy1000-sysex set;
#X obj 112 77 t b l;
#X connect 1 0 6 0;
#X connect 2 0 3 0;
#X connect 3 0 5 0;
#X connect 5 0 0 0;
#X connect 6 0 2 0;
#X connect 6 1 3 1;
