#N canvas 827 239 734 565 12;
#X obj 90 154 list store;
#X obj 30 51 t f f;
#X obj 30 113 t b b;
#X msg 118 84 append \$1;
#X obj 78 113 t b;
#X obj 30 84 sel 247 240;
#X obj 30 190 outlet;
#X obj 30 21 midiin;
#X obj 78 51 outlet;
#X text 182 20 sysexin doesn't output the F7 so never sees the end of the list \, so we use midiin instead., f 35;
#X connect 0 0 6 0;
#X connect 1 0 5 0;
#X connect 1 1 3 0;
#X connect 2 0 0 1;
#X connect 2 1 0 0;
#X connect 3 0 0 0;
#X connect 4 0 0 1;
#X connect 5 0 2 0;
#X connect 5 1 4 0;
#X connect 7 0 1 0;
#X connect 7 1 8 0;
